P1
# This is the picture to represent the car
6 4
1 0 0 0 0 0
0 0 0 0 0 0
1 0 0 0 0 0
0 0 0 0 0 0