P1
# This is the picture to represent the car
3 4
1 1 1
0 1 0
1 1 1
0 1 0